<svg width="40" height="40" viewBox="0 0 40 40" fill="none" xmlns="http://www.w3.org/2000/svg">
  <circle cx="20" cy="20" r="19" fill="#FFF6EE" />
  <path d="M12 12C12 10.3431 13.3431 9 15 9H25C26.6569 9 28 10.3431 28 12V14.5858C28 15.381 27.6839 16.1444 27.1213 16.7071L22.4142 21.4142C21.6324 22.1959 21.2 23.2608 21.2 24.3661V28.2C21.2 28.9772 20.5772 29.6 19.8 29.6H18.2C17.4228 29.6 16.8 28.9772 16.8 28.2V24.3661C16.8 23.2608 16.3676 22.1959 15.5858 21.4142L10.8787 16.7071C10.3161 16.1444 10 15.381 10 14.5858V12Z" fill="#FF9A3D" opacity="0.15" />
  <path d="M18 9H22C23.6569 9 25 10.3431 25 12V13C25 13.5523 24.5523 14 24 14H16C15.4477 14 15 13.5523 15 13V12C15 10.3431 16.3431 9 18 9Z" fill="#FF9A3D" />
  <path d="M20 21C20.5523 21 21 21.4477 21 22V25C21 25.5523 20.5523 26 20 26C19.4477 26 19 25.5523 19 25V22C19 21.4477 19.4477 21 20 21Z" fill="#FF9A3D" />
  <circle cx="20" cy="27.5" r="1.5" fill="#FF6B6B" />
</svg>
