<svg width="40" height="40" viewBox="0 0 40 40" fill="none" xmlns="http://www.w3.org/2000/svg">
  <circle cx="20" cy="20" r="19" fill="#10B4A4" opacity="0.12" />
  <path d="M22.75 10.5C23.3403 10.5 23.8193 11.0059 23.7444 11.5923L22.9 18.25H27.5C28.6569 18.25 29.5 19.3223 29.153 20.4257L26.453 29.0257C26.2646 29.6209 25.7221 30.0207 25.1 30.0207H18.75C18.1597 30.0207 17.6807 29.5148 17.7556 28.9284L18.6 22.2707H14C12.8431 22.2707 12 21.1985 12.347 20.0951L15.047 11.4951C15.2354 10.8999 15.7779 10.5 16.4 10.5H22.75Z" fill="#10B4A4" />
  <path d="M22.1 13.25H17.35L15.475 19.52H20.05C20.6403 19.52 21.1193 20.0259 21.0444 20.6123L20.2 27.27H24.95L26.825 21H22.25C21.6597 21 21.1807 20.4941 21.2556 19.9077L22.1 13.25Z" fill="#0A5852" opacity="0.85" />
  <path d="M18.75 26.5C18.75 27.1904 18.1904 27.75 17.5 27.75C16.8096 27.75 16.25 27.1904 16.25 26.5C16.25 25.8096 16.8096 25.25 17.5 25.25C18.1904 25.25 18.75 25.8096 18.75 26.5Z" fill="#FFF6EE" opacity="0.7" />
</svg>
