<svg width="40" height="40" viewBox="0 0 40 40" fill="none" xmlns="http://www.w3.org/2000/svg">
  <circle cx="20" cy="20" r="19" fill="#FFC857" opacity="0.18" />
  <path d="M15 9.5C15 8.94772 15.4477 8.5 16 8.5H25C26.932 8.5 28.5 10.068 28.5 12C28.5 13.932 26.932 15.5 25 15.5H19.5V28.5C19.5 29.0523 19.0523 29.5 18.5 29.5H16C15.4477 29.5 15 29.0523 15 28.5V9.5Z" fill="#FFB347" />
  <path d="M19.5 12H25C25.8284 12 26.5 12.6716 26.5 13.5C26.5 14.3284 25.8284 15 25 15H19.5V12Z" fill="#E26A00" opacity="0.8" />
  <path d="M18.5 29.5V24C18.5 23.1716 17.8284 22.5 17 22.5C16.1716 22.5 15.5 23.1716 15.5 24V29C15.5 29.2761 15.2761 29.5 15 29.5H14C13.4477 29.5 13 29.0523 13 28.5V26C13 24.6193 13.6193 23.2947 14.6716 22.3787L18.3787 19.1287C18.7544 18.8004 19.3228 18.8184 19.6763 19.1688L23.5 22.9188C24.4319 23.8303 25 25.0718 25 26.3741V28.5C25 29.0523 24.5523 29.5 24 29.5H22C21.4477 29.5 21 29.0523 21 28.5V26.75C21 25.9216 20.3284 25.25 19.5 25.25C18.6716 25.25 18 25.9216 18 26.75V29.5H18.5Z" fill="#FFF6EE" opacity="0.75" />
</svg>
