<svg width="40" height="40" viewBox="0 0 40 40" fill="none" xmlns="http://www.w3.org/2000/svg">
  <circle cx="20" cy="20" r="19" fill="#10B4A4" opacity="0.12" />
  <path d="M12 17H28V28C28 29.1046 27.1046 30 26 30H14C12.8954 30 12 29.1046 12 28V17Z" fill="#0A5852" />
  <path d="M28 17H12V15C12 13.8954 12.8954 13 14 13H26C27.1046 13 28 13.8954 28 15V17Z" fill="#10B4A4" />
  <path d="M20 12C21.6569 12 23 10.6569 23 9C23 8.44772 22.5523 8 22 8C20.3431 8 19 9.34315 19 11V12H20Z" fill="#FF9A3D" />
  <path d="M20 12C18.3431 12 17 10.6569 17 9C17 8.44772 17.4477 8 18 8C19.6569 8 21 9.34315 21 11V12H20Z" fill="#FF6B6B" />
  <rect x="18.75" y="13" width="2.5" height="17" rx="1.25" fill="#FFF6EE" opacity="0.9" />
  <path d="M14 20.5H18" stroke="#FFF6EE" stroke-width="1.5" stroke-linecap="round" />
  <path d="M22 20.5H26" stroke="#FFF6EE" stroke-width="1.5" stroke-linecap="round" />
</svg>
