<svg width="40" height="40" viewBox="0 0 40 40" fill="none" xmlns="http://www.w3.org/2000/svg">
  <circle cx="20" cy="20" r="19" fill="#10B4A4" opacity="0.12" />
  <path d="M14 10.5C14 9.67157 14.6716 9 15.5 9H24.5C26.9853 9 29 11.0147 29 13.5C29 15.9853 26.9853 18 24.5 18H18V28.5C18 29.3284 17.3284 30 16.5 30C15.6716 30 15 29.3284 15 28.5V10.5H14Z" fill="#10B4A4" />
  <path d="M18 18H23C24.6569 18 26 19.3431 26 21C26 22.6569 24.6569 24 23 24H21.5C20.6716 24 20 24.6716 20 25.5V28.5C20 29.3284 19.3284 30 18.5 30C17.6716 30 17 29.3284 17 28.5V21.5C17 19.0147 19.0147 17 21.5 17H18V18Z" fill="#0A5852" opacity="0.9" />
  <circle cx="24.5" cy="13.5" r="2" fill="#FFF6EE" opacity="0.9" />
</svg>
