<svg width="40" height="40" viewBox="0 0 40 40" fill="none" xmlns="http://www.w3.org/2000/svg">
  <circle cx="20" cy="20" r="19" stroke="#FF9A3D" stroke-width="2" opacity="0.2" />
  <path d="M20 4C20.5523 4 21 4.44772 21 5V10C21 10.5523 20.5523 11 20 11C19.4477 11 19 10.5523 19 10V5C19 4.44772 19.4477 4 20 4Z" fill="#FF9A3D" />
  <path d="M33 20C33 27.1797 27.1797 33 20 33C18.3431 33 17 31.6569 17 30C17 28.3431 18.3431 27 20 27C23.866 27 27 23.866 27 20C27 18.3431 28.3431 17 30 17C31.6569 17 33 18.3431 33 20Z" fill="#FF9A3D" opacity="0.35" />
</svg>
