<svg width="40" height="40" viewBox="0 0 40 40" fill="none" xmlns="http://www.w3.org/2000/svg">
  <circle cx="20" cy="20" r="19" fill="#FF6B6B" opacity="0.15" />
  <path d="M20 11C20.5523 11 21 11.4477 21 12V21C21 21.5523 20.5523 22 20 22C19.4477 22 19 21.5523 19 21V12C19 11.4477 19.4477 11 20 11Z" fill="#FF3B3B" />
  <circle cx="20" cy="27" r="1.75" fill="#FF3B3B" />
  <path d="M12.3431 12.3431C12.7336 11.9526 13.3668 11.9526 13.7574 12.3431L27.6569 26.2426C28.0474 26.6332 28.0474 27.2664 27.6569 27.6569C27.2664 28.0474 26.6332 28.0474 26.2426 27.6569L12.3431 13.7574C11.9526 13.3668 11.9526 12.7336 12.3431 12.3431Z" fill="#FF3B3B" opacity="0.6" />
</svg>
